<?xml version="1.0" encoding="utf-8"?>
<!-- Generator: Adobe Illustrator 27.0.0, SVG Export Plug-In . SVG Version: 6.00 Build 0)  -->
<svg version="1.1" id="Layer_1" xmlns="http://www.w3.org/2000/svg" xmlns:xlink="http://www.w3.org/1999/xlink" x="0px" y="0px"
	 viewBox="0 0 416.9 76.4" style="enable-background:new 0 0 416.9 76.4;" xml:space="preserve">
<path d="M0,32.6h407.5v11.2H0V32.6z"/>
<path d="M371.9,76.4c-1.7,0-3.4-0.8-4.5-2.3c-1.8-2.5-1.3-6,1.2-7.8l35.7-25.9c0.9-0.7,1.4-1.4,1.4-2.1c0-0.6-0.5-1.4-1.4-2.1
	l-35.7-26.1c-2.5-1.8-3-5.3-1.2-7.8s5.3-3,7.8-1.2l35.7,26.1c3.8,2.8,6,6.9,6,11.1c0,4.3-2.2,8.3-6.1,11.1l-35.7,25.9
	C374.2,76,373,76.4,371.9,76.4L371.9,76.4z"/>
</svg>
